<svg width="24" height="24" viewBox="0 0 24 24" fill="none" xmlns="http://www.w3.org/2000/svg">
<path d="M22.25 15C21.8375 15 21.5 15.3375 21.5 15.75V18.75C21.5 19.1625 21.8375 19.5 22.25 19.5C22.6625 19.5 23 19.1625 23 18.75V15.75C23 15.3375 22.6625 15 22.25 15Z" fill="#4A73FF"/>
<path d="M23 9.75C23 9.3375 22.6625 9 22.25 9C21.8375 9 21.5 9.3375 21.5 9.75V12.75C21.5 13.1625 21.8375 13.5 22.25 13.5C22.6625 13.5 23 13.1625 23 12.75V9.75Z" fill="#9CEAFF"/>
<path d="M23 3.75C23 3.3375 22.6625 3 22.25 3C21.8375 3 21.5 3.3375 21.5 3.75V6.75C21.5 7.1625 21.8375 7.5 22.25 7.5C22.6625 7.5 23 7.1625 23 6.75V3.75Z" fill="#98E29A"/>
<path d="M5.5 0C3.84531 0 2.5 1.34531 2.5 3V21C2.5 22.6547 3.84531 24 5.5 24H19C20.6547 24 22 22.6547 22 21V3C22 1.34531 20.6547 0 19 0H5.5Z" fill="#F59A00"/>
<path d="M10.75 13.5H13.75C15.8219 13.5 17.5 15.1781 17.5 17.25C17.5 17.6625 17.1625 18 16.75 18H7.75C7.3375 18 7 17.6625 7 17.25C7 15.1781 8.67812 13.5 10.75 13.5ZM9.625 9C9.625 8.30381 9.90156 7.63613 10.3938 7.14384C10.8861 6.65156 11.5538 6.375 12.25 6.375C12.9462 6.375 13.6139 6.65156 14.1062 7.14384C14.5984 7.63613 14.875 8.30381 14.875 9C14.875 9.69619 14.5984 10.3639 14.1062 10.8562C13.6139 11.3484 12.9462 11.625 12.25 11.625C11.5538 11.625 10.8861 11.3484 10.3938 10.8562C9.90156 10.3639 9.625 9.69619 9.625 9Z" fill="#F5F5F5"/>
<rect x="1" y="16" width="4.5" height="1.5" rx="0.75" fill="#1A1A1A"/>
<rect x="1" y="10" width="4.5" height="1.5" rx="0.75" fill="#1A1A1A"/>
<rect x="1" y="4" width="4.5" height="1.5" rx="0.75" fill="#1A1A1A"/>
</svg>
